<?xml version="1.0" encoding="UTF-8"?>
<!DOCTYPE svg PUBLIC "-//W3C//DTD SVG 1.1//EN" "http://www.w3.org/Graphics/SVG/1.1/DTD/svg11.dtd">
<!-- Creator: CorelDRAW 2018 (64 Bit Versão de avaliação) -->
<svg xmlns="http://www.w3.org/2000/svg" xml:space="preserve" width="6.1438mm" height="6.8183mm" version="1.1" style="shape-rendering:geometricPrecision; text-rendering:geometricPrecision; image-rendering:optimizeQuality; fill-rule:evenodd; clip-rule:evenodd"
viewBox="0 0 20.94 23.24"
 xmlns:xlink="http://www.w3.org/1999/xlink">
 <defs>
  <style type="text/css">
   <![CDATA[
    .fil0 {fill:#00AE71}
   ]]>
  </style>
 </defs>
 <g id="Camada_x0020_1">
  <metadata id="CorelCorpID_0Corel-Layer"/>
  <g id="_1836279995120">
   <path class="fil0" d="M11.88 6.31c0.99,-0.48 1.82,-1.28 2.39,-2.24 -0.23,-0.05 -0.4,-0.26 -0.4,-0.51 0,-0.29 0.24,-0.52 0.52,-0.52l0.73 0c0.18,0 0.34,0.08 0.44,0.24 0.1,0.15 0.11,0.33 0.04,0.5 -0.85,1.95 -2.52,3.49 -4.61,3.95l0 0.51c0.14,-0.11 0.27,-0.21 0.4,-0.33 0.22,-0.19 0.55,-0.16 0.74,0.06 0.19,0.22 0.16,0.55 -0.06,0.74 -0.35,0.3 -0.71,0.57 -1.08,0.82l0 0.8c0.14,-0.11 0.27,-0.23 0.4,-0.34 0.22,-0.19 0.55,-0.16 0.74,0.06 0.19,0.22 0.16,0.55 -0.06,0.74 -0.29,0.24 -0.57,0.49 -0.88,0.71 -0.07,0.05 -0.14,0.1 -0.21,0.15l0 0.11 1.65 0c0.29,0 0.52,0.24 0.52,0.52 0,0.29 -0.24,0.52 -0.52,0.52l-4.94 0c-0.03,0 -0.07,-0 -0.1,-0.01 -0.76,-0.05 -1.44,-0.41 -1.81,-1.31 -0.11,-0.27 0.02,-0.57 0.28,-0.68 0.27,-0.11 0.57,0.02 0.68,0.28 0.1,0.25 0.26,0.46 0.51,0.58 0.14,0.06 0.3,0.09 0.46,0.1l0.15 0c0.43,-0.02 0.89,-0.17 1.23,-0.31 0.29,-0.12 0.57,-0.25 0.84,-0.39l0 -0.9c-0.37,0.2 -0.76,0.38 -1.15,0.54 -0.27,0.11 -0.57,-0.02 -0.68,-0.29 -0.11,-0.27 0.02,-0.57 0.29,-0.68 0.54,-0.22 1.06,-0.48 1.55,-0.77l0 -0.98c-0.31,0.2 -0.63,0.38 -0.98,0.55 -0.26,0.13 -0.57,0.02 -0.7,-0.24 -0.13,-0.26 -0.02,-0.57 0.24,-0.7 1.49,-0.73 2.57,-1.72 3.46,-3.11 0.08,-0.12 0.15,-0.24 0.21,-0.37l-5.5 0c0.49,0.83 1.18,1.54 2.01,2.03 0.25,0.15 0.33,0.47 0.19,0.72 -0.15,0.25 -0.47,0.33 -0.72,0.19 -1.26,-0.74 -2.23,-1.91 -2.82,-3.24 -0.07,-0.17 -0.06,-0.34 0.04,-0.5 0.1,-0.15 0.26,-0.24 0.44,-0.24l6.7 0c0.02,-0.13 0.03,-0.25 0.03,-0.38 -0,-0.44 -0.13,-0.89 -0.44,-1.21 -0.42,-0.42 -1.03,-0.45 -1.59,-0.33 -0.37,0.08 -0.33,0.09 -0.61,0.38 -0.27,0.35 -0.9,0.5 -1.36,0.51 -0.15,0 -0.41,-0.01 -0.47,-0.16 -0.14,-0.34 0.39,-0.85 0.65,-1.04 0.17,-0.12 0.65,-0.45 0.99,-0.55 1.06,-0.39 2.28,-0.4 3.13,0.45 0.52,0.52 0.75,1.23 0.75,1.95 0,0.84 -0.3,1.66 -0.75,2.36 -0.3,0.47 -0.62,0.9 -0.97,1.29z"/>
   <path class="fil0" d="M3.48 20.41c0.4,0 0.8,0 1.2,0 0,-0.74 0,-1.49 0,-2.23 0,-0.16 0,-0.32 0,-0.47 0,-0.06 0,-0.13 0,-0.19 0,-1.08 -0.88,-1.96 -1.96,-1.96 0,0 0,0 0,0 -0.58,0 -1.1,0.26 -1.46,0.66 0,-0.81 0,-1.61 0,-2.42 -0.42,0 -0.84,0 -1.26,0 0,2.2 0,4.41 0,6.61 0.42,0 0.84,0 1.26,0 0,-0.74 0,-1.49 0,-2.23 0,-0.12 0,-0.25 0,-0.37 0,-0.64 0.52,-1.16 1.16,-1.16 0,0 0,0 0,0 0.25,0 0.48,0.08 0.67,0.21 0.42,0.3 0.39,0.65 0.39,0.93 0,0.87 0,1.75 0,2.62z"/>
   <path class="fil0" d="M12.69 21.2c0,0 0,0 0,0 -0.01,-0.81 -0.38,-1.26 -0.98,-1.52 0.41,-0.26 0.73,-0.59 0.87,-1.05 0.11,-0.37 0.08,-0.81 0.08,-1.19 -0.01,-0.5 -0.05,-0.76 0.44,-0.77 0,0 0,0 0,0 0.01,0 0.02,0 0.02,0 0,-0.4 0,-0.65 0,-1.04 -0.15,0 -0.31,0 -0.46,0 -0.37,0 -0.63,0.17 -0.83,0.43 -0.42,-0.36 -0.96,-0.58 -1.56,-0.58 -1.32,0 -2.39,1.07 -2.39,2.39 0,1.32 0.78,2.39 2.39,2.39l0.01 0c0.69,-0.01 1.24,0.3 1.26,0.92 0.01,0.62 -0.56,0.94 -1.26,0.94 -0.69,0 -1.25,-0.42 -1.26,-0.94l-1.17 0c-0,0.03 -0,0.06 -0,0.09 0,0 0,0 0,0 0.12,1.41 1.33,2 2.54,1.97 1.15,-0.03 2.3,-0.77 2.3,-2.04zm-2.39 -4.63c0.7,0 1.28,0.6 1.28,1.34 0,0.74 -0.57,1.34 -1.28,1.34 -0.7,0 -1.28,-0.6 -1.28,-1.34 0,-0.74 0.57,-1.34 1.28,-1.34z"/>
   <path class="fil0" d="M14.96 18.31c0,-0.71 0,-1.41 0,-2.12 0,-0.19 0,-0.39 0,-0.58 -0.42,0 -0.84,0 -1.26,0 0,0.62 0,1.24 0,1.85 0,0.28 0,0.56 0,0.84 0,0.28 0,0.56 0,0.85 0,0.7 0.57,1.27 1.26,1.27 0.15,0 0.31,0 0.46,0 0,-0.4 0,-0.79 0,-1.19 -0.01,0 -0.02,0 -0.02,0 0,0 0,0 0,0 -0.54,-0 -0.43,-0.33 -0.44,-0.93z"/>
   <circle class="fil0" cx="14.36" cy="14.54" r="0.7"/>
   <path class="fil0" d="M20.94 20.43l-1.26 0 0 -0.64c-0.42,0.45 -1.03,0.73 -1.69,0.73l0 0c-1.28,0 -2.32,-1.04 -2.32,-2.32l0 -0.36c0,-1.28 1.04,-2.32 2.32,-2.32l0 0c0.72,0 1.29,0.26 1.69,0.67l0 -0.56 1.26 0 0 4.8zm-2.7 -3.88c0.79,0 1.44,0.66 1.44,1.47 0,0.81 -0.64,1.47 -1.44,1.47 -0.79,0 -1.44,-0.66 -1.44,-1.47 0,-0.81 0.64,-1.47 1.44,-1.47z"/>
   <path class="fil0" d="M6.79 18.31c0,-0.71 0,-1.41 0,-2.12 0,-0.19 0,-0.39 0,-0.58 -0.42,0 -0.84,0 -1.26,0 0,0.62 0,1.24 0,1.85 0,0.28 0,0.56 0,0.84 0,0.28 0,0.56 0,0.85 0,0.7 0.57,1.27 1.26,1.27 0.15,0 0.31,0 0.46,0 0,-0.4 0,-0.79 0,-1.19 -0.01,0 -0.02,0 -0.02,0 0,0 0,0 0,0 -0.54,-0 -0.43,-0.33 -0.44,-0.93z"/>
   <circle class="fil0" cx="6.19" cy="14.54" r="0.7"/>
  </g>
 </g>
</svg>
